<svg width="35" height="38" viewBox="0 0 35 38" fill="none" xmlns="http://www.w3.org/2000/svg">
    <path d="M17.5 22.7996H15V25.3329H17.5V22.7996Z" fill="#180E30"/>
    <path d="M20.0001 25.3333H17.5001V27.8666H20.0001V25.3333Z" fill="#180E30"/>
    <path d="M20.0001 10.1329H17.5001V12.6663H20.0001V10.1329Z" fill="#180E30"/>
    <path d="M22.4999 35.4662H19.9999H17.4999H14.9999H12.4999V37.9996H14.9999H17.4999H19.9999H22.4999H24.9999H27.4999V35.4662H24.9999H22.4999Z" fill="#180E30"/>
    <path d="M17.4999 2.53333H19.9999H22.4999H24.9999H27.4999V0H24.9999H22.4999H19.9999H17.4999H14.9999H12.4999V2.53333H14.9999H17.4999Z" fill="#180E30"/>
    <path d="M22.4999 30.4004H24.9999H27.4999H29.9999H32.4999V32.9337H34.9999V30.4004V27.8671H32.4999H29.9999H27.4999H24.9999H22.4999H19.9999V30.4004H22.4999Z" fill="#180E30"/>
    <path d="M27.4999 32.9335V35.4669H29.9999H32.4999V32.9335H29.9999H27.4999Z" fill="#180E30"/>
    <path d="M7.49976 30.3998H4.99976V32.9331H7.49976V30.3998Z" fill="#180E30"/>
    <path d="M7.49976 5.06647H4.99976V7.5998H7.49976V5.06647Z" fill="#180E30"/>
    <path d="M32.4999 5.06647V7.5998H29.9999H27.4999H24.9999H22.4999H19.9999V10.1331H22.4999H24.9999H27.4999H29.9999H32.4999H34.9999V7.5998V5.06647H32.4999Z" fill="#180E30"/>
    <path d="M5.00012 25.3333H2.50012V27.8666V30.4H5.00012V27.8666V25.3333Z" fill="#180E30"/>
    <path d="M5.00012 10.1336V7.60022H2.50012V10.1336V12.6669H5.00012V10.1336Z" fill="#180E30"/>
    <path d="M2.5 20.2667V17.7334V15.2V12.6667H0V15.2V17.7334V20.2667V22.8V25.3334H2.5V22.8V20.2667Z" fill="#180E30"/>
    <path d="M12.4999 17.7338V20.2671V22.8004H14.9999V20.2671V17.7338V15.2004H12.4999V17.7338Z" fill="#180E30"/>
    <path d="M17.5 12.6667H15V15.2H17.5V12.6667Z" fill="#180E30"/>
    <path d="M10 32.9335H7.5V35.4669H10H12.5V32.9335H10Z" fill="#180E30"/>
    <path d="M29.9999 5.06709H32.4999V2.53375H29.9999H27.4999V5.06709H29.9999Z" fill="#180E30"/>
    <path d="M12.5 5.06709V2.53375H10H7.5V5.06709H10H12.5Z" fill="#180E30"/>
</svg>
