<svg width="38" height="42" viewBox="0 0 38 42" fill="none" xmlns="http://www.w3.org/2000/svg">
    <g clip-path="url(#clip0_254_2563)">
        <path d="M32.9331 33.6006H30.3998V36.4006H32.9331V33.6006Z" fill="black"/>
        <path d="M35.4658 36.4001H32.9325V39.2001H35.4658V36.4001Z" fill="black"/>
        <path d="M20.2655 11.1993H22.7989V8.39935H20.2655H17.7322H15.1989V11.1993H17.7322H20.2655Z" fill="black"/>
        <path d="M17.7336 2.79994V5.59994H20.267V2.79994V-6.10352e-05H17.7336V2.79994Z" fill="black"/>
        <path d="M7.60084 5.59988H5.0675V8.39988H7.60084V5.59988Z" fill="black"/>
        <path d="M5.06604 2.79938H2.53271V5.59937H5.06604V2.79938Z" fill="black"/>
        <path d="M12.6668 14.0009H15.2001V11.2009H12.6668H10.1334V14.0009V16.8009H12.6668V14.0009Z" fill="black"/>
        <path d="M5.06667 22.3992V19.5992H2.53333H0V22.3992H2.53333H5.06667Z" fill="black"/>
        <path d="M10.1336 19.5998V16.7998H7.60022V19.5998V22.3998V25.1998H10.1336V22.3998V19.5998Z" fill="black"/>
        <path d="M7.60084 33.6006H5.0675V36.4006H7.60084V33.6006Z" fill="black"/>
        <path d="M5.06604 36.4001H2.53271V39.2001H5.06604V36.4001Z" fill="black"/>
        <path d="M12.6668 27.9992V25.1992H10.1334V27.9992V30.7992H12.6668H15.2001V27.9992H12.6668Z" fill="black"/>
        <path d="M17.7322 30.7991H15.1989V33.5991H17.7322H20.2655H22.7989V30.7991H20.2655H17.7322Z" fill="black"/>
        <path d="M17.7336 39.2001V42.0001H20.267V39.2001V36.4001H17.7336V39.2001Z" fill="black"/>
        <path d="M25.3345 27.9992H22.8011V30.7992H25.3345H27.8678V27.9992V25.1992H25.3345V27.9992Z" fill="black"/>
        <path d="M30.3999 22.3998V19.5998V16.7998H27.8666V19.5998V22.3998V25.1998H30.3999V22.3998Z" fill="black"/>
        <path d="M32.9325 19.5992V22.3992H35.4658H37.9992V19.5992H35.4658H32.9325Z" fill="black"/>
        <path d="M25.3345 14.0009V16.8009H27.8678V14.0009V11.2009H25.3345H22.8011V14.0009H25.3345Z" fill="black"/>
        <path d="M32.9331 5.59988H30.3998V8.39988H32.9331V5.59988Z" fill="black"/>
        <path d="M35.4658 2.79938H32.9325V5.59937H35.4658V2.79938Z" fill="black"/>
    </g>
    <defs>
        <clipPath id="clip0_254_2563">
            <rect width="38" height="42" fill="white"/>
        </clipPath>
    </defs>
</svg>
