<?xml version="1.0" standalone="no"?>
<!DOCTYPE svg PUBLIC "-//W3C//DTD SVG 20010904//EN"
 "http://www.w3.org/TR/2001/REC-SVG-20010904/DTD/svg10.dtd">
<svg version="1.0" xmlns="http://www.w3.org/2000/svg"
 width="537.000000pt" height="537.000000pt" viewBox="0 0 537.000000 537.000000"
 preserveAspectRatio="xMidYMid meet">
<metadata>
Created by potrace 1.14, written by Peter Selinger 2001-2017
</metadata>
<g transform="translate(0.000000,537.000000) scale(0.100000,-0.100000)"
fill="#000000" stroke="none">
<path d="M2178 4540 l-3 -85 -80 0 -80 0 -2 -140 c-1 -77 -2 -152 -2 -167 l-1
-28 -335 0 -335 0 0 84 0 84 -72 0 c-40 0 -79 0 -85 1 -9 1 -13 25 -13 84 l0
83 -82 -1 -83 0 -1 -75 c-1 -41 -2 -79 -3 -85 0 -6 -36 -10 -83 -10 l-83 0 0
-165 0 -165 -79 -2 c-44 -1 -82 -7 -85 -12 -3 -5 -5 -43 -5 -86 l2 -76 -84 3
-84 3 2 -590 3 -590 70 -1 c39 0 76 -2 83 -2 8 -2 12 -23 11 -74 0 -40 0 -77
0 -83 1 -6 34 -9 83 -7 l83 3 0 -85 0 -86 167 0 168 0 0 -168 0 -168 83 0 82
1 5 -85 5 -85 80 0 80 0 0 -83 0 -82 65 -1 c115 -2 105 6 105 -84 l0 -80 85
-5 85 -5 0 -155 c0 -85 -1 -160 -3 -166 -2 -7 -31 -11 -79 -10 -41 0 -78 -3
-81 -9 -11 -17 -8 -155 3 -156 5 -1 39 -3 75 -4 36 -1 70 -3 75 -4 7 0 10 -30
9 -73 -1 -40 0 -77 2 -83 3 -8 413 -13 492 -6 9 1 12 75 12 335 l0 335 588 0
588 1 -1 -168 0 -167 -76 -1 c-41 0 -79 -3 -85 -6 -7 -5 -10 -109 -5 -156 1
-4 38 -7 84 -7 l82 0 0 -80 c0 -44 3 -82 7 -85 3 -3 116 -5 250 -5 l243 1 3
337 2 337 86 0 85 0 -1 48 c-1 26 -1 64 -1 85 l1 37 84 0 83 0 -1 167 -1 168
170 -1 170 0 -1 83 -2 83 84 0 84 0 0 169 0 169 83 -1 82 -1 2 337 1 337 -84
0 -84 0 0 85 0 85 -84 0 -85 0 1 63 c0 34 0 71 -1 83 -1 20 -6 20 -245 19
-135 0 -248 -3 -251 -7 -4 -4 -7 -41 -6 -82 l1 -76 -85 0 -85 0 0 -85 0 -85
-84 0 -84 0 0 -57 c0 -32 0 -70 -1 -85 l-1 -26 -502 1 -503 2 0 412 c-1 227
-4 415 -8 419 -3 4 -42 7 -84 8 l-78 1 0 165 0 165 -85 5 -84 5 -1 165 0 165
-82 -1 -82 0 -3 85 -3 86 -82 0 -82 0 -3 -85z m2188 -1933 l1 -167 -46 -1
c-72 -2 -113 -1 -116 3 -2 2 -5 39 -7 83 l-3 80 -80 0 -80 0 -3 82 c-2 70 0
82 14 85 10 2 85 3 168 2 l151 0 1 -167z"/>
</g>
</svg>
