<svg width="15" height="13" viewBox="0 0 15 13" fill="none" xmlns="http://www.w3.org/2000/svg">
<path d="M13.5813 4.05945L11.3445 3.69457L13.0527 2.9816L13.438 1.44186L12.9873 0.642619L10.7855 0L11.9064 1.60429L11.9131 1.61375L11.0396 1.8319L8.88006 0.350891L7.04772 0.568396L5.21539 0.350891L3.05561 1.8319L2.18215 1.61375L2.1886 1.60429L3.30991 0L1.10796 0.642619L0.653591 1.44186L1.03847 2.9816L2.74646 3.69457L0.509663 4.05945L0 5.43225L1.53329 6.17232L2.98225 5.66245L3.19072 7.20628L4.14378 9.42242L4.60741 10.625L6.8513 12.1986L7.04213 12.3322V12.335H7.04385L7.04557 12.3337L7.04772 12.335H7.04901V12.3322L7.23984 12.1986L9.48373 10.6248L9.94736 9.42242L10.8998 7.20649L11.108 5.66223L12.5568 6.17232L14.0901 5.43225L13.5813 4.05945ZM1.25662 0.833447L2.75549 0.39607L1.94227 1.55997L0.950482 1.37667L1.25662 0.833447ZM0.926601 1.60149L1.80006 1.76284L1.18541 2.63394L0.926601 1.60149ZM2.96461 5.43139L1.54964 5.929L0.284628 5.31865L0.677901 4.2606L2.96461 3.88734V5.43139ZM2.96461 3.54053L1.30955 2.84972L2.04188 1.8119L2.9631 2.04209L2.96461 3.54053ZM9.26817 4.14335L9.05453 4.85761H5.03833L4.82491 4.14335L7.04557 0.943167L9.26795 4.14357L9.26817 4.14335ZM7.13399 7.06364H5.68805L5.10868 5.08286H8.98268L8.40331 7.06364H7.13399ZM8.33619 7.28825L7.61805 9.18684L7.04708 9.65542L6.47588 9.18684L5.75775 7.28825H8.33619ZM3.18878 3.28108V2.01327L5.27111 0.585392L6.88099 0.776435L6.89175 0.77751L6.8868 0.782244L4.62354 4.02546L3.18857 3.28108H3.18878ZM4.35333 9.33766L3.41145 7.14582L3.20126 5.59446L4.89419 5.15214L5.48302 7.16669L5.00627 8.16063L4.36408 9.36649L4.35333 9.33787V9.33766ZM4.47165 9.64444L5.14203 8.38631L6.86959 9.80365L6.81128 9.85098L4.76811 10.4172L4.47165 9.64444ZM7.046 12.0596L4.96088 10.5973L7.046 10.0194L9.13091 10.5973L7.046 12.0596ZM9.3226 10.4168L7.27964 9.85076L7.22134 9.80343L8.9489 8.38567L9.61906 9.64423L9.3226 10.4168ZM10.6812 7.14518L9.73932 9.33701L9.72813 9.36562L9.08594 8.15956L8.60791 7.16648L9.19695 5.15171L10.8901 5.59403L10.6812 7.14518ZM10.9028 3.28108L9.46781 4.02546L7.20456 0.782244L7.20004 0.77751L7.2108 0.776435L8.82046 0.585392L10.903 2.01327L10.9028 3.28108ZM12.907 2.63351L12.2926 1.7622L13.166 1.60106L12.907 2.63351ZM11.3365 0.3965L12.8356 0.834092L13.1419 1.37732L12.1502 1.5604L11.3365 0.3965ZM11.1285 2.04209L12.0514 1.8119L12.7835 2.84994L11.1285 3.54075V2.04209ZM12.5436 5.92922L11.1285 5.4316V3.88734L13.4152 4.2606L13.8082 5.31865L12.5436 5.92922Z" fill="#BEB793"/>
</svg>
