<?xml version="1.0" encoding="utf-8"?>
<!-- Generator: Adobe Illustrator 26.0.1, SVG Export Plug-In . SVG Version: 6.00 Build 0)  -->
<svg version="1.1" id="Layer_1" xmlns="http://www.w3.org/2000/svg" xmlns:xlink="http://www.w3.org/1999/xlink" x="0px" y="0px"
	 viewBox="0 0 38 42" style="enable-background:new 0 0 38 42;" xml:space="preserve">
<style type="text/css">
	.st0{clip-path:url(#SVGID_00000111888067640505771280000011033074158707188120_);}
	.st1{fill:#FFFFFF;}
</style>
<g>
	<defs>
		<rect id="SVGID_1_" width="38" height="42"/>
	</defs>
	<clipPath id="SVGID_00000091720521473231140410000002124435456899912623_">
		<use xlink:href="#SVGID_1_"  style="overflow:visible;"/>
	</clipPath>
	<g style="clip-path:url(#SVGID_00000091720521473231140410000002124435456899912623_);">
		<path class="st1" d="M32.9,33.6h-2.5v2.8h2.5V33.6z"/>
		<path class="st1" d="M35.5,36.4h-2.5v2.8h2.5V36.4z"/>
		<path class="st1" d="M20.3,11.2h2.5V8.4h-2.5h-2.5h-2.5v2.8h2.5H20.3z"/>
		<path class="st1" d="M17.7,2.8v2.8h2.5V2.8V0h-2.5V2.8z"/>
		<path class="st1" d="M7.6,5.6H5.1v2.8h2.5V5.6z"/>
		<path class="st1" d="M5.1,2.8H2.5v2.8h2.5V2.8z"/>
		<path class="st1" d="M12.7,14h2.5v-2.8h-2.5h-2.5V14v2.8h2.5V14z"/>
		<path class="st1" d="M5.1,22.4v-2.8H2.5H0v2.8h2.5H5.1z"/>
		<path class="st1" d="M10.1,19.6v-2.8H7.6v2.8v2.8v2.8h2.5v-2.8V19.6z"/>
		<path class="st1" d="M7.6,33.6H5.1v2.8h2.5V33.6z"/>
		<path class="st1" d="M5.1,36.4H2.5v2.8h2.5V36.4z"/>
		<path class="st1" d="M12.7,28v-2.8h-2.5V28v2.8h2.5h2.5V28H12.7z"/>
		<path class="st1" d="M17.7,30.8h-2.5v2.8h2.5h2.5h2.5v-2.8h-2.5H17.7z"/>
		<path class="st1" d="M17.7,39.2V42h2.5v-2.8v-2.8h-2.5V39.2z"/>
		<path class="st1" d="M25.3,28h-2.5v2.8h2.5h2.5V28v-2.8h-2.5V28z"/>
		<path class="st1" d="M30.4,22.4v-2.8v-2.8h-2.5v2.8v2.8v2.8h2.5V22.4z"/>
		<path class="st1" d="M32.9,19.6v2.8h2.5H38v-2.8h-2.5H32.9z"/>
		<path class="st1" d="M25.3,14v2.8h2.5V14v-2.8h-2.5h-2.5V14H25.3z"/>
		<path class="st1" d="M32.9,5.6h-2.5v2.8h2.5V5.6z"/>
		<path class="st1" d="M35.5,2.8h-2.5v2.8h2.5V2.8z"/>
	</g>
</g>
</svg>
